<svg width="40" height="40" fill="none" xmlns="http://www.w3.org/2000/svg"><path fill-rule="evenodd" clip-rule="evenodd" d="M35.424 16.363c2.053 8.55-3.214 17.144-11.764 19.197-8.55 2.052-17.144-3.215-19.197-11.764C2.411 15.246 7.677 6.65 16.227 4.599c8.55-2.053 17.144 3.214 19.197 11.764z" fill="#FFC246"/><path fill-rule="evenodd" clip-rule="evenodd" d="M26.361 16.105c-.202-2.251-2.123-3.033-4.561-3.276l.022-3.113-1.925-.025-.026 3.052-1.498-.003.014-3.06-1.883-.024-.022 3.113-3.8-.02.024 2.024s1.392-.013 1.368.014c.52-.045.987.321 1.074.84l.002 8.556a.673.673 0 01-.226.462.663.663 0 01-.485.164h-1.467l-.389 2.269 2.46.031 1.35.028-.032 3.115 1.88.015.023-3.113 1.534.067-.022 3.113 1.893.022.02-3.164c3.176-.142 5.399-.924 5.694-3.926.24-2.42-.847-3.526-2.676-3.967a2.952 2.952 0 001.654-3.194zm-2.681 6.734c-.017 2.366-4.042 2.007-5.306 2.04l.03-4.15c1.236-.017 5.247-.358 5.237 2.12l.039-.01zm-.847-5.918c-.008 2.146-3.363 1.843-4.418 1.848l-.017-3.787c1.07.012 4.412-.293 4.396 1.948l.04-.01z" fill="#fff"/></svg>